<svg xmlns="http://www.w3.org/2000/svg" viewBox="0 0 120 80">
  <rect width="120" height="80" fill="white"/>
  <!-- Boîtier aérotherme -->
  <rect x="5" y="5" width="80" height="70" fill="none" stroke="#333" stroke-width="2"/>
  <!-- Batterie chaude à gauche -->
  <path d="M 15 15 L 35 15 L 35 25 L 15 25 L 15 35 L 35 35 L 35 45 L 15 45 L 15 55 L 35 55 L 35 65 L 15 65"
        fill="none" stroke="#333" stroke-width="1.5"/>
  <!-- Ventilateur à droite -->
  <circle cx="62" cy="40" r="22" fill="none" stroke="#333" stroke-width="2"/>
  <circle cx="62" cy="40" r="4" fill="#333"/>
  <line x1="62" y1="18" x2="62" y2="62" stroke="#333" stroke-width="1.5"/>
  <line x1="40" y1="40" x2="84" y2="40" stroke="#333" stroke-width="1.5"/>
  <!-- Flèches air chaud sortant -->
  <line x1="90" y1="25" x2="115" y2="25" stroke="#333" stroke-width="2"/>
  <path d="M 110 20 L 117 25 L 110 30" fill="none" stroke="#333" stroke-width="2"/>
  <line x1="90" y1="40" x2="115" y2="40" stroke="#333" stroke-width="2"/>
  <path d="M 110 35 L 117 40 L 110 45" fill="none" stroke="#333" stroke-width="2"/>
  <line x1="90" y1="55" x2="115" y2="55" stroke="#333" stroke-width="2"/>
  <path d="M 110 50 L 117 55 L 110 60" fill="none" stroke="#333" stroke-width="2"/>
</svg>