<svg xmlns="http://www.w3.org/2000/svg" viewBox="0 0 100 100">
  <rect width="100" height="100" fill="white"/>
  <!-- Cercle extérieur -->
  <circle cx="50" cy="50" r="38" fill="none" stroke="#333" stroke-width="2"/>
  <!-- 4 pales -->
  <path d="M 50 50 C 55 35 65 28 62 22 C 55 20 45 30 50 50 Z" fill="#333" opacity="0.8"/>
  <path d="M 50 50 C 65 55 72 65 78 62 C 80 55 70 45 50 50 Z" fill="#333" opacity="0.8"/>
  <path d="M 50 50 C 45 65 35 72 38 78 C 45 80 55 70 50 50 Z" fill="#333" opacity="0.8"/>
  <path d="M 50 50 C 35 45 28 35 22 38 C 20 45 30 55 50 50 Z" fill="#333" opacity="0.8"/>
  <!-- Axe central -->
  <circle cx="50" cy="50" r="5" fill="white" stroke="#333" stroke-width="2"/>
</svg>