<svg xmlns="http://www.w3.org/2000/svg" viewBox="0 0 120 80">
  <rect width="120" height="80" fill="white"/>
  <!-- Boîtier -->
  <rect x="5" y="10" width="110" height="60" rx="3" fill="none" stroke="#333" stroke-width="2"/>
  <!-- Batterie (serpentin à gauche) -->
  <path d="M 20 20 L 50 20 L 50 30 L 20 30 L 20 40 L 50 40 L 50 50 L 20 50 L 20 60 L 50 60"
        fill="none" stroke="#333" stroke-width="1.5"/>
  <!-- Ventilateur (à droite) -->
  <circle cx="85" cy="40" r="22" fill="none" stroke="#333" stroke-width="2"/>
  <!-- Pales ventilateur simplifiées -->
  <path d="M 85 40 C 88 32 94 29 93 24 C 89 23 84 28 85 40 Z" fill="#333" opacity="0.7"/>
  <path d="M 85 40 C 93 43 96 49 101 47 C 102 43 97 38 85 40 Z" fill="#333" opacity="0.7"/>
  <path d="M 85 40 C 82 48 76 51 77 56 C 81 57 86 52 85 40 Z" fill="#333" opacity="0.7"/>
  <path d="M 85 40 C 77 37 74 31 69 33 C 68 37 73 42 85 40 Z" fill="#333" opacity="0.7"/>
  <circle cx="85" cy="40" r="4" fill="white" stroke="#333" stroke-width="1.5"/>
  <!-- Flèches de soufflage -->
  <path d="M 115 25 L 120 30" stroke="#333" stroke-width="1.5" marker-end="url(#arr)"/>
  <path d="M 115 40 L 120 40" stroke="#333" stroke-width="1.5"/>
  <path d="M 115 55 L 120 50" stroke="#333" stroke-width="1.5"/>
</svg>